<mxfile host="65bd71144e" modified="2021-02-28T21:12:46.241Z" agent="5.0 (Windows NT 10.0; Win64; x64) AppleWebKit/537.36 (KHTML, like Gecko) Code/1.53.2 Chrome/87.0.4280.141 Electron/11.2.1 Safari/537.36" version="14.2.4" etag="aOn8gQmeLA-6P3yYtNgt" type="embed" pages="4">
    <diagram id="IJl9nqBKK6mNHiMfE9sH" name="Server Side Rendering">
        <mxGraphModel dx="1996" dy="903" grid="1" gridSize="10" guides="1" tooltips="1" connect="1" arrows="1" fold="1" page="0" pageScale="1" pageWidth="850" pageHeight="1100" math="0" shadow="0">
            <root>
                <mxCell id="0"/>
                <mxCell id="1" parent="0"/>
                <mxCell id="12" value="" style="shape=cube;whiteSpace=wrap;html=1;boundedLbl=1;backgroundOutline=1;darkOpacity=0.05;darkOpacity2=0.1;" vertex="1" parent="1">
                    <mxGeometry x="-150" y="270" width="230" height="250" as="geometry"/>
                </mxCell>
                <mxCell id="2" value="&lt;h1&gt;Geração de Páginas e&amp;nbsp;&lt;/h1&gt;&lt;h1&gt;Fluxo de Acesso no NextJS&lt;/h1&gt;" style="text;html=1;align=center;verticalAlign=middle;resizable=0;points=[];autosize=1;" vertex="1" parent="1">
                    <mxGeometry x="-540" y="-10" width="330" height="80" as="geometry"/>
                </mxCell>
                <mxCell id="3" value="&lt;h2&gt;Server Side Rendering&lt;/h2&gt;" style="text;html=1;align=center;verticalAlign=middle;resizable=0;points=[];autosize=1;" vertex="1" parent="1">
                    <mxGeometry x="-150" y="90" width="210" height="50" as="geometry"/>
                </mxCell>
                <mxCell id="6" value="" style="edgeStyle=orthogonalEdgeStyle;rounded=0;orthogonalLoop=1;jettySize=auto;html=1;" edge="1" parent="1" source="4" target="5">
                    <mxGeometry relative="1" as="geometry"/>
                </mxCell>
                <mxCell id="9" value="" style="edgeStyle=orthogonalEdgeStyle;rounded=0;orthogonalLoop=1;jettySize=auto;html=1;" edge="1" parent="1" source="4" target="8">
                    <mxGeometry relative="1" as="geometry"/>
                </mxCell>
                <mxCell id="4" value="Código Next/React" style="whiteSpace=wrap;html=1;" vertex="1" parent="1">
                    <mxGeometry x="-90" y="330" width="120" height="60" as="geometry"/>
                </mxCell>
                <mxCell id="7" value="" style="edgeStyle=orthogonalEdgeStyle;rounded=0;orthogonalLoop=1;jettySize=auto;html=1;" edge="1" parent="1" source="5" target="4">
                    <mxGeometry relative="1" as="geometry"/>
                </mxCell>
                <mxCell id="5" value="Banco&lt;br&gt;de&lt;br&gt;Dados" style="shape=cylinder;whiteSpace=wrap;html=1;boundedLbl=1;backgroundOutline=1;" vertex="1" parent="1">
                    <mxGeometry x="-60" y="420" width="60" height="80" as="geometry"/>
                </mxCell>
                <mxCell id="15" value="" style="edgeStyle=orthogonalEdgeStyle;rounded=0;orthogonalLoop=1;jettySize=auto;html=1;entryX=0.599;entryY=0.011;entryDx=0;entryDy=0;entryPerimeter=0;" edge="1" parent="1" source="8" target="11">
                    <mxGeometry relative="1" as="geometry">
                        <mxPoint x="240" y="160" as="targetPoint"/>
                    </mxGeometry>
                </mxCell>
                <mxCell id="8" value="HTML todo já&lt;br&gt;construído" style="whiteSpace=wrap;html=1;" vertex="1" parent="1">
                    <mxGeometry x="80" y="180" width="120" height="60" as="geometry"/>
                </mxCell>
                <mxCell id="14" value="" style="edgeStyle=orthogonalEdgeStyle;rounded=0;orthogonalLoop=1;jettySize=auto;html=1;" edge="1" parent="1" source="11" target="12">
                    <mxGeometry relative="1" as="geometry"/>
                </mxCell>
                <mxCell id="11" value="Usuário acessa página" style="ellipse;whiteSpace=wrap;html=1;" vertex="1" parent="1">
                    <mxGeometry x="-370" y="265" width="120" height="80" as="geometry"/>
                </mxCell>
                <mxCell id="13" value="Servidor" style="text;html=1;align=center;verticalAlign=middle;resizable=0;points=[];autosize=1;" vertex="1" parent="1">
                    <mxGeometry x="-60" y="300" width="60" height="20" as="geometry"/>
                </mxCell>
                <mxCell id="16" value="Tempo de resposta maior" style="text;html=1;align=center;verticalAlign=middle;resizable=0;points=[];autosize=1;" vertex="1" parent="1">
                    <mxGeometry x="-110" y="540" width="150" height="20" as="geometry"/>
                </mxCell>
                <mxCell id="17" value="SEO melhor" style="text;html=1;align=center;verticalAlign=middle;resizable=0;points=[];autosize=1;" vertex="1" parent="1">
                    <mxGeometry x="100" y="150" width="80" height="20" as="geometry"/>
                </mxCell>
            </root>
        </mxGraphModel>
    </diagram>
    <diagram id="Sb2h33vWGgbGj8rekHoC" name="Static Site Generation">
        <mxGraphModel dx="2235" dy="1004" grid="1" gridSize="10" guides="1" tooltips="1" connect="1" arrows="1" fold="1" page="0" pageScale="1" pageWidth="850" pageHeight="1100" math="0" shadow="0">
            <root>
                <mxCell id="qVb-lpE-ypOx8Y0qRD29-0"/>
                <mxCell id="qVb-lpE-ypOx8Y0qRD29-1" parent="qVb-lpE-ypOx8Y0qRD29-0"/>
                <mxCell id="mRwc2Sx2FRpMDdkpeoXC-1" value="" style="whiteSpace=wrap;html=1;" vertex="1" parent="qVb-lpE-ypOx8Y0qRD29-1">
                    <mxGeometry x="-450" y="190" width="560" height="430" as="geometry"/>
                </mxCell>
                <mxCell id="2_pBW-bDEQTTyGr_TnvV-0" value="" style="shape=cube;whiteSpace=wrap;html=1;boundedLbl=1;backgroundOutline=1;darkOpacity=0.05;darkOpacity2=0.1;" vertex="1" parent="qVb-lpE-ypOx8Y0qRD29-1">
                    <mxGeometry x="-410" y="265" width="237.5" height="285" as="geometry"/>
                </mxCell>
                <mxCell id="2_pBW-bDEQTTyGr_TnvV-1" value="&lt;font style=&quot;font-size: 14px&quot;&gt;Servidor&lt;/font&gt;" style="text;html=1;align=center;verticalAlign=middle;resizable=0;points=[];autosize=1;" vertex="1" parent="qVb-lpE-ypOx8Y0qRD29-1">
                    <mxGeometry x="-317.5" y="290" width="70" height="20" as="geometry"/>
                </mxCell>
                <mxCell id="2_pBW-bDEQTTyGr_TnvV-2" value="&lt;h2&gt;Static Site Generation&lt;/h2&gt;" style="text;html=1;align=center;verticalAlign=middle;resizable=0;points=[];autosize=1;" vertex="1" parent="qVb-lpE-ypOx8Y0qRD29-1">
                    <mxGeometry x="-270" y="120" width="200" height="50" as="geometry"/>
                </mxCell>
                <mxCell id="2_pBW-bDEQTTyGr_TnvV-3" value="" style="edgeStyle=orthogonalEdgeStyle;rounded=0;orthogonalLoop=1;jettySize=auto;html=1;" edge="1" parent="qVb-lpE-ypOx8Y0qRD29-1" source="2_pBW-bDEQTTyGr_TnvV-5" target="2_pBW-bDEQTTyGr_TnvV-7">
                    <mxGeometry relative="1" as="geometry"/>
                </mxCell>
                <mxCell id="2_pBW-bDEQTTyGr_TnvV-4" value="" style="edgeStyle=orthogonalEdgeStyle;rounded=0;orthogonalLoop=1;jettySize=auto;html=1;" edge="1" parent="qVb-lpE-ypOx8Y0qRD29-1" source="2_pBW-bDEQTTyGr_TnvV-5" target="2_pBW-bDEQTTyGr_TnvV-8">
                    <mxGeometry relative="1" as="geometry"/>
                </mxCell>
                <mxCell id="2_pBW-bDEQTTyGr_TnvV-5" value="&lt;font style=&quot;font-size: 14px&quot;&gt;Código Next/React&lt;/font&gt;" style="whiteSpace=wrap;html=1;" vertex="1" parent="qVb-lpE-ypOx8Y0qRD29-1">
                    <mxGeometry x="-342.5" y="320" width="120" height="60" as="geometry"/>
                </mxCell>
                <mxCell id="2_pBW-bDEQTTyGr_TnvV-6" value="" style="edgeStyle=orthogonalEdgeStyle;rounded=0;orthogonalLoop=1;jettySize=auto;html=1;" edge="1" parent="qVb-lpE-ypOx8Y0qRD29-1" source="2_pBW-bDEQTTyGr_TnvV-7">
                    <mxGeometry relative="1" as="geometry">
                        <mxPoint x="-282.5" y="380" as="targetPoint"/>
                    </mxGeometry>
                </mxCell>
                <mxCell id="2_pBW-bDEQTTyGr_TnvV-7" value="&lt;font style=&quot;font-size: 14px&quot;&gt;Banco&lt;br&gt;de&lt;br&gt;Dados&lt;/font&gt;" style="shape=cylinder;whiteSpace=wrap;html=1;boundedLbl=1;backgroundOutline=1;" vertex="1" parent="qVb-lpE-ypOx8Y0qRD29-1">
                    <mxGeometry x="-312.5" y="430" width="60" height="80" as="geometry"/>
                </mxCell>
                <mxCell id="2_pBW-bDEQTTyGr_TnvV-8" value="&lt;font style=&quot;font-size: 14px&quot;&gt;page-1.html&lt;/font&gt;" style="whiteSpace=wrap;html=1;" vertex="1" parent="qVb-lpE-ypOx8Y0qRD29-1">
                    <mxGeometry x="-62.5" y="290" width="120" height="60" as="geometry"/>
                </mxCell>
                <mxCell id="2_pBW-bDEQTTyGr_TnvV-9" value="&lt;font style=&quot;font-size: 14px&quot;&gt;page-2.html&lt;/font&gt;" style="whiteSpace=wrap;html=1;" vertex="1" parent="qVb-lpE-ypOx8Y0qRD29-1">
                    <mxGeometry x="-62.5" y="360" width="120" height="60" as="geometry"/>
                </mxCell>
                <mxCell id="2_pBW-bDEQTTyGr_TnvV-10" value="" style="edgeStyle=orthogonalEdgeStyle;rounded=0;orthogonalLoop=1;jettySize=auto;html=1;exitX=1;exitY=0.75;exitDx=0;exitDy=0;" edge="1" parent="qVb-lpE-ypOx8Y0qRD29-1" source="2_pBW-bDEQTTyGr_TnvV-5" target="2_pBW-bDEQTTyGr_TnvV-9">
                    <mxGeometry relative="1" as="geometry">
                        <mxPoint x="-212.5" y="360.0000000000002" as="sourcePoint"/>
                        <mxPoint x="-102.5" y="330.0000000000002" as="targetPoint"/>
                    </mxGeometry>
                </mxCell>
                <mxCell id="2_pBW-bDEQTTyGr_TnvV-11" value="&lt;font style=&quot;font-size: 14px&quot;&gt;page-3.html&lt;/font&gt;" style="whiteSpace=wrap;html=1;" vertex="1" parent="qVb-lpE-ypOx8Y0qRD29-1">
                    <mxGeometry x="-62.5" y="440" width="120" height="60" as="geometry"/>
                </mxCell>
                <mxCell id="2_pBW-bDEQTTyGr_TnvV-12" value="" style="edgeStyle=orthogonalEdgeStyle;rounded=0;orthogonalLoop=1;jettySize=auto;html=1;exitX=1;exitY=0.75;exitDx=0;exitDy=0;entryX=0;entryY=0.5;entryDx=0;entryDy=0;" edge="1" parent="qVb-lpE-ypOx8Y0qRD29-1" target="2_pBW-bDEQTTyGr_TnvV-11">
                    <mxGeometry relative="1" as="geometry">
                        <mxPoint x="-222.5" y="375" as="sourcePoint"/>
                        <mxPoint x="-62.5" y="400.0000000000002" as="targetPoint"/>
                        <Array as="points">
                            <mxPoint x="-152.5" y="375"/>
                            <mxPoint x="-152.5" y="470"/>
                        </Array>
                    </mxGeometry>
                </mxCell>
                <mxCell id="mRwc2Sx2FRpMDdkpeoXC-0" value="&lt;h1&gt;Geração de Páginas e&amp;nbsp;&lt;/h1&gt;&lt;h1&gt;Fluxo de Acesso no NextJS&lt;/h1&gt;" style="text;html=1;align=center;verticalAlign=middle;resizable=0;points=[];autosize=1;" vertex="1" parent="qVb-lpE-ypOx8Y0qRD29-1">
                    <mxGeometry x="-445" y="-90" width="330" height="80" as="geometry"/>
                </mxCell>
                <mxCell id="mRwc2Sx2FRpMDdkpeoXC-3" value="&lt;h3&gt;Etapa 1 - Build&lt;/h3&gt;" style="text;html=1;align=center;verticalAlign=middle;resizable=0;points=[];autosize=1;" vertex="1" parent="qVb-lpE-ypOx8Y0qRD29-1">
                    <mxGeometry x="-225" y="200" width="110" height="50" as="geometry"/>
                </mxCell>
                <mxCell id="kcINupko0LbGhCiXPx97-2" value="" style="edgeStyle=orthogonalEdgeStyle;rounded=0;orthogonalLoop=1;jettySize=auto;html=1;" edge="1" parent="qVb-lpE-ypOx8Y0qRD29-1" source="kcINupko0LbGhCiXPx97-0" target="kcINupko0LbGhCiXPx97-1">
                    <mxGeometry relative="1" as="geometry"/>
                </mxCell>
                <mxCell id="kcINupko0LbGhCiXPx97-0" value="&lt;font style=&quot;font-size: 14px&quot;&gt;Maria acessa&lt;br&gt;page-1.html&lt;/font&gt;" style="ellipse;whiteSpace=wrap;html=1;" vertex="1" parent="qVb-lpE-ypOx8Y0qRD29-1">
                    <mxGeometry x="280" y="375" width="120" height="80" as="geometry"/>
                </mxCell>
                <mxCell id="kcINupko0LbGhCiXPx97-1" value="&lt;font style=&quot;font-size: 14px&quot;&gt;page-1.html&lt;/font&gt;" style="whiteSpace=wrap;html=1;" vertex="1" parent="qVb-lpE-ypOx8Y0qRD29-1">
                    <mxGeometry x="500" y="385" width="120" height="60" as="geometry"/>
                </mxCell>
                <mxCell id="kcINupko0LbGhCiXPx97-4" value="" style="edgeStyle=orthogonalEdgeStyle;rounded=0;orthogonalLoop=1;jettySize=auto;html=1;" edge="1" parent="qVb-lpE-ypOx8Y0qRD29-1" source="kcINupko0LbGhCiXPx97-3" target="kcINupko0LbGhCiXPx97-1">
                    <mxGeometry relative="1" as="geometry"/>
                </mxCell>
                <mxCell id="kcINupko0LbGhCiXPx97-3" value="&lt;font style=&quot;font-size: 14px&quot;&gt;Alice&lt;br&gt;acessa &lt;br&gt;page-1.html&lt;/font&gt;" style="ellipse;whiteSpace=wrap;html=1;" vertex="1" parent="qVb-lpE-ypOx8Y0qRD29-1">
                    <mxGeometry x="280" y="485" width="120" height="80" as="geometry"/>
                </mxCell>
                <mxCell id="kcINupko0LbGhCiXPx97-6" value="" style="edgeStyle=orthogonalEdgeStyle;rounded=0;orthogonalLoop=1;jettySize=auto;html=1;" edge="1" parent="qVb-lpE-ypOx8Y0qRD29-1" source="kcINupko0LbGhCiXPx97-5" target="kcINupko0LbGhCiXPx97-1">
                    <mxGeometry relative="1" as="geometry"/>
                </mxCell>
                <mxCell id="kcINupko0LbGhCiXPx97-5" value="&lt;font style=&quot;font-size: 14px&quot;&gt;Willian acessa&lt;br&gt;page-1.html&lt;/font&gt;" style="ellipse;whiteSpace=wrap;html=1;" vertex="1" parent="qVb-lpE-ypOx8Y0qRD29-1">
                    <mxGeometry x="280" y="265" width="120" height="80" as="geometry"/>
                </mxCell>
                <mxCell id="kcINupko0LbGhCiXPx97-7" value="&lt;font style=&quot;font-size: 18px&quot;&gt;Entrega sempre mesmo &lt;br&gt;estático&lt;/font&gt;" style="text;html=1;align=center;verticalAlign=middle;resizable=0;points=[];autosize=1;" vertex="1" parent="qVb-lpE-ypOx8Y0qRD29-1">
                    <mxGeometry x="640" y="387.5" width="210" height="40" as="geometry"/>
                </mxCell>
                <mxCell id="kcINupko0LbGhCiXPx97-8" value="&lt;font style=&quot;font-size: 18px&quot;&gt;Não tem mais processo &lt;br&gt;no Servidor&lt;/font&gt;" style="text;html=1;align=center;verticalAlign=middle;resizable=0;points=[];autosize=1;" vertex="1" parent="qVb-lpE-ypOx8Y0qRD29-1">
                    <mxGeometry x="360" y="195" width="200" height="40" as="geometry"/>
                </mxCell>
            </root>
        </mxGraphModel>
    </diagram>
    <diagram id="DBl-UYLS2xAY-gCIWBBk" name="Incremental Static Regeneration">
        <mxGraphModel dx="2888" dy="1111" grid="1" gridSize="10" guides="1" tooltips="1" connect="1" arrows="1" fold="1" page="0" pageScale="1" pageWidth="850" pageHeight="1100" math="0" shadow="0">
            <root>
                <mxCell id="q0az0de39Vp8cDaWlEq2-0"/>
                <mxCell id="q0az0de39Vp8cDaWlEq2-1" parent="q0az0de39Vp8cDaWlEq2-0"/>
                <mxCell id="Nnj6af79WpJ_D7qGyi7y-39" value="" style="edgeStyle=orthogonalEdgeStyle;rounded=0;orthogonalLoop=1;jettySize=auto;html=1;entryX=0;entryY=0.5;entryDx=0;entryDy=0;exitX=1.007;exitY=0.525;exitDx=0;exitDy=0;exitPerimeter=0;" edge="1" parent="q0az0de39Vp8cDaWlEq2-1" source="Nnj6af79WpJ_D7qGyi7y-0" target="Nnj6af79WpJ_D7qGyi7y-26">
                    <mxGeometry relative="1" as="geometry">
                        <mxPoint x="180" y="370" as="sourcePoint"/>
                    </mxGeometry>
                </mxCell>
                <mxCell id="Nnj6af79WpJ_D7qGyi7y-26" value="" style="whiteSpace=wrap;html=1;" vertex="1" parent="q0az0de39Vp8cDaWlEq2-1">
                    <mxGeometry x="210" y="180" width="440" height="470" as="geometry"/>
                </mxCell>
                <mxCell id="Nnj6af79WpJ_D7qGyi7y-37" value="" style="edgeStyle=orthogonalEdgeStyle;rounded=0;orthogonalLoop=1;jettySize=auto;html=1;" edge="1" parent="q0az0de39Vp8cDaWlEq2-1" source="Nnj6af79WpJ_D7qGyi7y-0" target="Nnj6af79WpJ_D7qGyi7y-28">
                    <mxGeometry relative="1" as="geometry"/>
                </mxCell>
                <mxCell id="Nnj6af79WpJ_D7qGyi7y-0" value="" style="whiteSpace=wrap;html=1;" vertex="1" parent="q0az0de39Vp8cDaWlEq2-1">
                    <mxGeometry x="-450" y="190" width="560" height="430" as="geometry"/>
                </mxCell>
                <mxCell id="Nnj6af79WpJ_D7qGyi7y-1" value="" style="shape=cube;whiteSpace=wrap;html=1;boundedLbl=1;backgroundOutline=1;darkOpacity=0.05;darkOpacity2=0.1;" vertex="1" parent="q0az0de39Vp8cDaWlEq2-1">
                    <mxGeometry x="-410" y="265" width="237.5" height="285" as="geometry"/>
                </mxCell>
                <mxCell id="Nnj6af79WpJ_D7qGyi7y-2" value="&lt;font style=&quot;font-size: 14px&quot;&gt;Servidor&lt;/font&gt;" style="text;html=1;align=center;verticalAlign=middle;resizable=0;points=[];autosize=1;" vertex="1" parent="q0az0de39Vp8cDaWlEq2-1">
                    <mxGeometry x="-317.5" y="290" width="70" height="20" as="geometry"/>
                </mxCell>
                <mxCell id="Nnj6af79WpJ_D7qGyi7y-3" value="&lt;h2&gt;Incremental Static Regeneration&lt;/h2&gt;" style="text;html=1;align=center;verticalAlign=middle;resizable=0;points=[];autosize=1;" vertex="1" parent="q0az0de39Vp8cDaWlEq2-1">
                    <mxGeometry x="-312.5" y="110" width="290" height="50" as="geometry"/>
                </mxCell>
                <mxCell id="Nnj6af79WpJ_D7qGyi7y-4" value="" style="edgeStyle=orthogonalEdgeStyle;rounded=0;orthogonalLoop=1;jettySize=auto;html=1;" edge="1" parent="q0az0de39Vp8cDaWlEq2-1" source="Nnj6af79WpJ_D7qGyi7y-6" target="Nnj6af79WpJ_D7qGyi7y-8">
                    <mxGeometry relative="1" as="geometry"/>
                </mxCell>
                <mxCell id="Nnj6af79WpJ_D7qGyi7y-5" value="" style="edgeStyle=orthogonalEdgeStyle;rounded=0;orthogonalLoop=1;jettySize=auto;html=1;" edge="1" parent="q0az0de39Vp8cDaWlEq2-1" source="Nnj6af79WpJ_D7qGyi7y-6" target="Nnj6af79WpJ_D7qGyi7y-9">
                    <mxGeometry relative="1" as="geometry"/>
                </mxCell>
                <mxCell id="Nnj6af79WpJ_D7qGyi7y-6" value="&lt;font style=&quot;font-size: 14px&quot;&gt;Código Next/React&lt;/font&gt;" style="whiteSpace=wrap;html=1;" vertex="1" parent="q0az0de39Vp8cDaWlEq2-1">
                    <mxGeometry x="-342.5" y="320" width="120" height="60" as="geometry"/>
                </mxCell>
                <mxCell id="Nnj6af79WpJ_D7qGyi7y-7" value="" style="edgeStyle=orthogonalEdgeStyle;rounded=0;orthogonalLoop=1;jettySize=auto;html=1;" edge="1" parent="q0az0de39Vp8cDaWlEq2-1" source="Nnj6af79WpJ_D7qGyi7y-8">
                    <mxGeometry relative="1" as="geometry">
                        <mxPoint x="-282.50000000000045" y="380" as="targetPoint"/>
                    </mxGeometry>
                </mxCell>
                <mxCell id="Nnj6af79WpJ_D7qGyi7y-8" value="&lt;font style=&quot;font-size: 14px&quot;&gt;Banco&lt;br&gt;de&lt;br&gt;Dados&lt;/font&gt;" style="shape=cylinder;whiteSpace=wrap;html=1;boundedLbl=1;backgroundOutline=1;" vertex="1" parent="q0az0de39Vp8cDaWlEq2-1">
                    <mxGeometry x="-312.5" y="430" width="60" height="80" as="geometry"/>
                </mxCell>
                <mxCell id="Nnj6af79WpJ_D7qGyi7y-9" value="&lt;font style=&quot;font-size: 14px&quot;&gt;page-1.html&lt;/font&gt;" style="whiteSpace=wrap;html=1;" vertex="1" parent="q0az0de39Vp8cDaWlEq2-1">
                    <mxGeometry x="-62.5" y="290" width="120" height="60" as="geometry"/>
                </mxCell>
                <mxCell id="Nnj6af79WpJ_D7qGyi7y-10" value="&lt;font style=&quot;font-size: 14px&quot;&gt;page-2.html&lt;/font&gt;" style="whiteSpace=wrap;html=1;" vertex="1" parent="q0az0de39Vp8cDaWlEq2-1">
                    <mxGeometry x="-62.5" y="360" width="120" height="60" as="geometry"/>
                </mxCell>
                <mxCell id="Nnj6af79WpJ_D7qGyi7y-11" value="" style="edgeStyle=orthogonalEdgeStyle;rounded=0;orthogonalLoop=1;jettySize=auto;html=1;exitX=1;exitY=0.75;exitDx=0;exitDy=0;" edge="1" parent="q0az0de39Vp8cDaWlEq2-1" source="Nnj6af79WpJ_D7qGyi7y-6" target="Nnj6af79WpJ_D7qGyi7y-10">
                    <mxGeometry relative="1" as="geometry">
                        <mxPoint x="-212.5" y="360.0000000000002" as="sourcePoint"/>
                        <mxPoint x="-102.5" y="330.0000000000002" as="targetPoint"/>
                    </mxGeometry>
                </mxCell>
                <mxCell id="Nnj6af79WpJ_D7qGyi7y-12" value="&lt;font style=&quot;font-size: 14px&quot;&gt;page-3.html&lt;/font&gt;" style="whiteSpace=wrap;html=1;" vertex="1" parent="q0az0de39Vp8cDaWlEq2-1">
                    <mxGeometry x="-62.5" y="440" width="120" height="60" as="geometry"/>
                </mxCell>
                <mxCell id="Nnj6af79WpJ_D7qGyi7y-13" value="" style="edgeStyle=orthogonalEdgeStyle;rounded=0;orthogonalLoop=1;jettySize=auto;html=1;exitX=1;exitY=0.75;exitDx=0;exitDy=0;entryX=0;entryY=0.5;entryDx=0;entryDy=0;" edge="1" parent="q0az0de39Vp8cDaWlEq2-1" target="Nnj6af79WpJ_D7qGyi7y-12">
                    <mxGeometry relative="1" as="geometry">
                        <mxPoint x="-222.50000000000045" y="375" as="sourcePoint"/>
                        <mxPoint x="-62.5" y="400.0000000000002" as="targetPoint"/>
                        <Array as="points">
                            <mxPoint x="-152.5" y="375"/>
                            <mxPoint x="-152.5" y="470"/>
                        </Array>
                    </mxGeometry>
                </mxCell>
                <mxCell id="Nnj6af79WpJ_D7qGyi7y-14" value="&lt;h1&gt;Geração de Páginas e&amp;nbsp;&lt;/h1&gt;&lt;h1&gt;Fluxo de Acesso no NextJS&lt;/h1&gt;" style="text;html=1;align=center;verticalAlign=middle;resizable=0;points=[];autosize=1;" vertex="1" parent="q0az0de39Vp8cDaWlEq2-1">
                    <mxGeometry x="-445" y="-90" width="330" height="80" as="geometry"/>
                </mxCell>
                <mxCell id="Nnj6af79WpJ_D7qGyi7y-15" value="&lt;h3&gt;Etapa 1 - Build&lt;/h3&gt;" style="text;html=1;align=center;verticalAlign=middle;resizable=0;points=[];autosize=1;" vertex="1" parent="q0az0de39Vp8cDaWlEq2-1">
                    <mxGeometry x="-225" y="200" width="110" height="50" as="geometry"/>
                </mxCell>
                <mxCell id="Nnj6af79WpJ_D7qGyi7y-16" value="" style="edgeStyle=orthogonalEdgeStyle;rounded=0;orthogonalLoop=1;jettySize=auto;html=1;" edge="1" parent="q0az0de39Vp8cDaWlEq2-1" source="Nnj6af79WpJ_D7qGyi7y-17" target="Nnj6af79WpJ_D7qGyi7y-18">
                    <mxGeometry relative="1" as="geometry"/>
                </mxCell>
                <mxCell id="Nnj6af79WpJ_D7qGyi7y-17" value="&lt;font style=&quot;font-size: 14px&quot;&gt;Maria acessa&lt;br&gt;page-1.html&lt;/font&gt;" style="ellipse;whiteSpace=wrap;html=1;" vertex="1" parent="q0az0de39Vp8cDaWlEq2-1">
                    <mxGeometry x="260" y="385" width="120" height="80" as="geometry"/>
                </mxCell>
                <mxCell id="Nnj6af79WpJ_D7qGyi7y-18" value="&lt;font style=&quot;font-size: 14px&quot;&gt;page-1.html&lt;/font&gt;" style="whiteSpace=wrap;html=1;" vertex="1" parent="q0az0de39Vp8cDaWlEq2-1">
                    <mxGeometry x="480" y="395" width="120" height="60" as="geometry"/>
                </mxCell>
                <mxCell id="Nnj6af79WpJ_D7qGyi7y-19" value="" style="edgeStyle=orthogonalEdgeStyle;rounded=0;orthogonalLoop=1;jettySize=auto;html=1;" edge="1" parent="q0az0de39Vp8cDaWlEq2-1" source="Nnj6af79WpJ_D7qGyi7y-20" target="Nnj6af79WpJ_D7qGyi7y-18">
                    <mxGeometry relative="1" as="geometry"/>
                </mxCell>
                <mxCell id="Nnj6af79WpJ_D7qGyi7y-20" value="&lt;font style=&quot;font-size: 14px&quot;&gt;Alice&lt;br&gt;acessa &lt;br&gt;page-1.html&lt;/font&gt;" style="ellipse;whiteSpace=wrap;html=1;" vertex="1" parent="q0az0de39Vp8cDaWlEq2-1">
                    <mxGeometry x="260" y="495" width="120" height="80" as="geometry"/>
                </mxCell>
                <mxCell id="Nnj6af79WpJ_D7qGyi7y-21" value="" style="edgeStyle=orthogonalEdgeStyle;rounded=0;orthogonalLoop=1;jettySize=auto;html=1;" edge="1" parent="q0az0de39Vp8cDaWlEq2-1" source="Nnj6af79WpJ_D7qGyi7y-22" target="Nnj6af79WpJ_D7qGyi7y-18">
                    <mxGeometry relative="1" as="geometry"/>
                </mxCell>
                <mxCell id="Nnj6af79WpJ_D7qGyi7y-22" value="&lt;font style=&quot;font-size: 14px&quot;&gt;Willian acessa&lt;br&gt;page-1.html&lt;/font&gt;" style="ellipse;whiteSpace=wrap;html=1;" vertex="1" parent="q0az0de39Vp8cDaWlEq2-1">
                    <mxGeometry x="260" y="275" width="120" height="80" as="geometry"/>
                </mxCell>
                <mxCell id="Nnj6af79WpJ_D7qGyi7y-25" value="&lt;font style=&quot;font-size: 18px&quot;&gt;Revalidate: 60&lt;/font&gt;" style="text;html=1;align=center;verticalAlign=middle;resizable=0;points=[];autosize=1;" vertex="1" parent="q0az0de39Vp8cDaWlEq2-1">
                    <mxGeometry x="-232.5" y="580" width="130" height="20" as="geometry"/>
                </mxCell>
                <mxCell id="Nnj6af79WpJ_D7qGyi7y-27" value="&lt;font style=&quot;font-size: 18px&quot;&gt;Acessaram em intervalo de 60s&lt;/font&gt;" style="text;html=1;align=center;verticalAlign=middle;resizable=0;points=[];autosize=1;" vertex="1" parent="q0az0de39Vp8cDaWlEq2-1">
                    <mxGeometry x="310" y="220" width="270" height="20" as="geometry"/>
                </mxCell>
                <mxCell id="Nnj6af79WpJ_D7qGyi7y-28" value="" style="whiteSpace=wrap;html=1;" vertex="1" parent="q0az0de39Vp8cDaWlEq2-1">
                    <mxGeometry x="-1020" y="170" width="440" height="620" as="geometry"/>
                </mxCell>
                <mxCell id="Nnj6af79WpJ_D7qGyi7y-29" value="" style="edgeStyle=orthogonalEdgeStyle;rounded=0;orthogonalLoop=1;jettySize=auto;html=1;" edge="1" parent="q0az0de39Vp8cDaWlEq2-1" source="Nnj6af79WpJ_D7qGyi7y-30" target="Nnj6af79WpJ_D7qGyi7y-31">
                    <mxGeometry relative="1" as="geometry"/>
                </mxCell>
                <mxCell id="Nnj6af79WpJ_D7qGyi7y-30" value="&lt;font style=&quot;font-size: 14px&quot;&gt;Lucas acessa&lt;br&gt;page-1.html&lt;/font&gt;" style="ellipse;whiteSpace=wrap;html=1;" vertex="1" parent="q0az0de39Vp8cDaWlEq2-1">
                    <mxGeometry x="-960" y="395" width="120" height="80" as="geometry"/>
                </mxCell>
                <mxCell id="Nnj6af79WpJ_D7qGyi7y-31" value="&lt;font style=&quot;font-size: 14px&quot;&gt;page-1-new.html&lt;/font&gt;" style="whiteSpace=wrap;html=1;" vertex="1" parent="q0az0de39Vp8cDaWlEq2-1">
                    <mxGeometry x="-740" y="405" width="120" height="60" as="geometry"/>
                </mxCell>
                <mxCell id="Nnj6af79WpJ_D7qGyi7y-32" value="" style="edgeStyle=orthogonalEdgeStyle;rounded=0;orthogonalLoop=1;jettySize=auto;html=1;" edge="1" parent="q0az0de39Vp8cDaWlEq2-1" source="Nnj6af79WpJ_D7qGyi7y-33" target="Nnj6af79WpJ_D7qGyi7y-31">
                    <mxGeometry relative="1" as="geometry"/>
                </mxCell>
                <mxCell id="Nnj6af79WpJ_D7qGyi7y-33" value="&lt;font style=&quot;font-size: 14px&quot;&gt;Antonio&lt;br&gt;acessa &lt;br&gt;page-1.html&lt;/font&gt;" style="ellipse;whiteSpace=wrap;html=1;" vertex="1" parent="q0az0de39Vp8cDaWlEq2-1">
                    <mxGeometry x="-960" y="505" width="120" height="80" as="geometry"/>
                </mxCell>
                <mxCell id="Nnj6af79WpJ_D7qGyi7y-34" value="" style="edgeStyle=orthogonalEdgeStyle;rounded=0;orthogonalLoop=1;jettySize=auto;html=1;" edge="1" parent="q0az0de39Vp8cDaWlEq2-1" source="Nnj6af79WpJ_D7qGyi7y-35" target="Nnj6af79WpJ_D7qGyi7y-31">
                    <mxGeometry relative="1" as="geometry"/>
                </mxCell>
                <mxCell id="Nnj6af79WpJ_D7qGyi7y-35" value="&lt;font style=&quot;font-size: 14px&quot;&gt;José acessa&lt;br&gt;page-1.html&lt;/font&gt;" style="ellipse;whiteSpace=wrap;html=1;" vertex="1" parent="q0az0de39Vp8cDaWlEq2-1">
                    <mxGeometry x="-960" y="285" width="120" height="80" as="geometry"/>
                </mxCell>
                <mxCell id="Nnj6af79WpJ_D7qGyi7y-36" value="&lt;font style=&quot;font-size: 18px&quot;&gt;Acessaram em outro intervalo de 60&lt;/font&gt;" style="text;html=1;align=center;verticalAlign=middle;resizable=0;points=[];autosize=1;" vertex="1" parent="q0az0de39Vp8cDaWlEq2-1">
                    <mxGeometry x="-942.5" y="220" width="300" height="20" as="geometry"/>
                </mxCell>
                <mxCell id="IFD2K49PLNYoO7BVoCW2-0" value="&lt;font style=&quot;font-size: 14px&quot;&gt;Willian acessa&lt;br&gt;page-1.html&lt;/font&gt;" style="ellipse;whiteSpace=wrap;html=1;" vertex="1" parent="q0az0de39Vp8cDaWlEq2-1">
                    <mxGeometry x="-750" y="590" width="120" height="80" as="geometry"/>
                </mxCell>
            </root>
        </mxGraphModel>
    </diagram>
    <diagram id="HiJ77PHJmg9h4ow9nc8P" name="Fallbacks">
        <mxGraphModel dx="2235" dy="604" grid="1" gridSize="10" guides="1" tooltips="1" connect="1" arrows="1" fold="1" page="0" pageScale="1" pageWidth="850" pageHeight="1100" math="0" shadow="0">
            <root>
                <mxCell id="ejC8heTR-p2rXwsiGBWH-0"/>
                <mxCell id="ejC8heTR-p2rXwsiGBWH-1" parent="ejC8heTR-p2rXwsiGBWH-0"/>
                <mxCell id="8uwWVGnF2fwSN4bI8sw9-0" value="" style="whiteSpace=wrap;html=1;" vertex="1" parent="ejC8heTR-p2rXwsiGBWH-1">
                    <mxGeometry x="-450" y="190" width="560" height="430" as="geometry"/>
                </mxCell>
                <mxCell id="8uwWVGnF2fwSN4bI8sw9-1" value="" style="shape=cube;whiteSpace=wrap;html=1;boundedLbl=1;backgroundOutline=1;darkOpacity=0.05;darkOpacity2=0.1;" vertex="1" parent="ejC8heTR-p2rXwsiGBWH-1">
                    <mxGeometry x="-410" y="265" width="237.5" height="285" as="geometry"/>
                </mxCell>
                <mxCell id="8uwWVGnF2fwSN4bI8sw9-2" value="&lt;font style=&quot;font-size: 14px&quot;&gt;Servidor&lt;/font&gt;" style="text;html=1;align=center;verticalAlign=middle;resizable=0;points=[];autosize=1;" vertex="1" parent="ejC8heTR-p2rXwsiGBWH-1">
                    <mxGeometry x="-317.5" y="290" width="70" height="20" as="geometry"/>
                </mxCell>
                <mxCell id="8uwWVGnF2fwSN4bI8sw9-3" value="&lt;h2&gt;Sistema de Fallback&lt;/h2&gt;" style="text;html=1;align=center;verticalAlign=middle;resizable=0;points=[];autosize=1;" vertex="1" parent="ejC8heTR-p2rXwsiGBWH-1">
                    <mxGeometry x="-262.5" y="120" width="190" height="50" as="geometry"/>
                </mxCell>
                <mxCell id="8uwWVGnF2fwSN4bI8sw9-4" value="" style="edgeStyle=orthogonalEdgeStyle;rounded=0;orthogonalLoop=1;jettySize=auto;html=1;" edge="1" parent="ejC8heTR-p2rXwsiGBWH-1" source="8uwWVGnF2fwSN4bI8sw9-6" target="8uwWVGnF2fwSN4bI8sw9-8">
                    <mxGeometry relative="1" as="geometry"/>
                </mxCell>
                <mxCell id="8uwWVGnF2fwSN4bI8sw9-5" value="" style="edgeStyle=orthogonalEdgeStyle;rounded=0;orthogonalLoop=1;jettySize=auto;html=1;" edge="1" parent="ejC8heTR-p2rXwsiGBWH-1" source="8uwWVGnF2fwSN4bI8sw9-6" target="8uwWVGnF2fwSN4bI8sw9-9">
                    <mxGeometry relative="1" as="geometry"/>
                </mxCell>
                <mxCell id="8uwWVGnF2fwSN4bI8sw9-6" value="&lt;font style=&quot;font-size: 14px&quot;&gt;Código Next/React&lt;/font&gt;" style="whiteSpace=wrap;html=1;" vertex="1" parent="ejC8heTR-p2rXwsiGBWH-1">
                    <mxGeometry x="-342.5" y="320" width="120" height="60" as="geometry"/>
                </mxCell>
                <mxCell id="8uwWVGnF2fwSN4bI8sw9-7" value="" style="edgeStyle=orthogonalEdgeStyle;rounded=0;orthogonalLoop=1;jettySize=auto;html=1;" edge="1" parent="ejC8heTR-p2rXwsiGBWH-1" source="8uwWVGnF2fwSN4bI8sw9-8">
                    <mxGeometry relative="1" as="geometry">
                        <mxPoint x="-282.50000000000045" y="380" as="targetPoint"/>
                    </mxGeometry>
                </mxCell>
                <mxCell id="8uwWVGnF2fwSN4bI8sw9-8" value="&lt;font style=&quot;font-size: 14px&quot;&gt;Banco&lt;br&gt;de&lt;br&gt;Dados&lt;/font&gt;" style="shape=cylinder;whiteSpace=wrap;html=1;boundedLbl=1;backgroundOutline=1;" vertex="1" parent="ejC8heTR-p2rXwsiGBWH-1">
                    <mxGeometry x="-312.5" y="430" width="60" height="80" as="geometry"/>
                </mxCell>
                <mxCell id="8uwWVGnF2fwSN4bI8sw9-9" value="&lt;font style=&quot;font-size: 14px&quot;&gt;page-1.html&lt;/font&gt;" style="whiteSpace=wrap;html=1;" vertex="1" parent="ejC8heTR-p2rXwsiGBWH-1">
                    <mxGeometry x="-62.5" y="290" width="120" height="60" as="geometry"/>
                </mxCell>
                <mxCell id="8uwWVGnF2fwSN4bI8sw9-10" value="&lt;font style=&quot;font-size: 14px&quot;&gt;page-2.html&lt;/font&gt;" style="whiteSpace=wrap;html=1;" vertex="1" parent="ejC8heTR-p2rXwsiGBWH-1">
                    <mxGeometry x="-62.5" y="360" width="120" height="60" as="geometry"/>
                </mxCell>
                <mxCell id="8uwWVGnF2fwSN4bI8sw9-11" value="" style="edgeStyle=orthogonalEdgeStyle;rounded=0;orthogonalLoop=1;jettySize=auto;html=1;exitX=1;exitY=0.75;exitDx=0;exitDy=0;" edge="1" parent="ejC8heTR-p2rXwsiGBWH-1" source="8uwWVGnF2fwSN4bI8sw9-6" target="8uwWVGnF2fwSN4bI8sw9-10">
                    <mxGeometry relative="1" as="geometry">
                        <mxPoint x="-212.5" y="360.0000000000002" as="sourcePoint"/>
                        <mxPoint x="-102.5" y="330.0000000000002" as="targetPoint"/>
                    </mxGeometry>
                </mxCell>
                <mxCell id="8uwWVGnF2fwSN4bI8sw9-12" value="&lt;font style=&quot;font-size: 14px&quot;&gt;page-3.html&lt;/font&gt;" style="whiteSpace=wrap;html=1;" vertex="1" parent="ejC8heTR-p2rXwsiGBWH-1">
                    <mxGeometry x="-62.5" y="440" width="120" height="60" as="geometry"/>
                </mxCell>
                <mxCell id="8uwWVGnF2fwSN4bI8sw9-13" value="" style="edgeStyle=orthogonalEdgeStyle;rounded=0;orthogonalLoop=1;jettySize=auto;html=1;exitX=1;exitY=0.75;exitDx=0;exitDy=0;entryX=0;entryY=0.5;entryDx=0;entryDy=0;" edge="1" parent="ejC8heTR-p2rXwsiGBWH-1" target="8uwWVGnF2fwSN4bI8sw9-12">
                    <mxGeometry relative="1" as="geometry">
                        <mxPoint x="-222.50000000000045" y="375" as="sourcePoint"/>
                        <mxPoint x="-62.5" y="400.0000000000002" as="targetPoint"/>
                        <Array as="points">
                            <mxPoint x="-152.5" y="375"/>
                            <mxPoint x="-152.5" y="470"/>
                        </Array>
                    </mxGeometry>
                </mxCell>
                <mxCell id="8uwWVGnF2fwSN4bI8sw9-14" value="&lt;h3&gt;Etapa 1 - Build&lt;/h3&gt;" style="text;html=1;align=center;verticalAlign=middle;resizable=0;points=[];autosize=1;" vertex="1" parent="ejC8heTR-p2rXwsiGBWH-1">
                    <mxGeometry x="-225" y="200" width="110" height="50" as="geometry"/>
                </mxCell>
                <mxCell id="8uwWVGnF2fwSN4bI8sw9-15" value="&lt;font style=&quot;font-size: 18px&quot;&gt;Revalidate: 60&lt;/font&gt;" style="text;html=1;align=center;verticalAlign=middle;resizable=0;points=[];autosize=1;" vertex="1" parent="ejC8heTR-p2rXwsiGBWH-1">
                    <mxGeometry x="-232.5" y="580" width="130" height="20" as="geometry"/>
                </mxCell>
                <mxCell id="ODKkw-43JTHZH8aYC60H-3" value="" style="edgeStyle=orthogonalEdgeStyle;rounded=0;orthogonalLoop=1;jettySize=auto;html=1;" edge="1" parent="ejC8heTR-p2rXwsiGBWH-1" source="ODKkw-43JTHZH8aYC60H-0" target="ODKkw-43JTHZH8aYC60H-2">
                    <mxGeometry relative="1" as="geometry"/>
                </mxCell>
                <mxCell id="ODKkw-43JTHZH8aYC60H-0" value="&lt;font style=&quot;font-size: 14px&quot;&gt;Willian acessa&lt;br&gt;page-4.html&lt;/font&gt;" style="ellipse;whiteSpace=wrap;html=1;" vertex="1" parent="ejC8heTR-p2rXwsiGBWH-1">
                    <mxGeometry x="170" y="310" width="120" height="80" as="geometry"/>
                </mxCell>
                <mxCell id="ODKkw-43JTHZH8aYC60H-1" value="Dados da page-4" style="rhombus;whiteSpace=wrap;html=1;" vertex="1" parent="ejC8heTR-p2rXwsiGBWH-1">
                    <mxGeometry x="-247.5" y="480" width="67.5" height="60" as="geometry"/>
                </mxCell>
                <mxCell id="ODKkw-43JTHZH8aYC60H-5" value="" style="edgeStyle=orthogonalEdgeStyle;rounded=0;orthogonalLoop=1;jettySize=auto;html=1;" edge="1" parent="ejC8heTR-p2rXwsiGBWH-1" source="ODKkw-43JTHZH8aYC60H-2" target="ODKkw-43JTHZH8aYC60H-4">
                    <mxGeometry relative="1" as="geometry"/>
                </mxCell>
                <mxCell id="ODKkw-43JTHZH8aYC60H-7" value="" style="edgeStyle=orthogonalEdgeStyle;rounded=0;orthogonalLoop=1;jettySize=auto;html=1;" edge="1" parent="ejC8heTR-p2rXwsiGBWH-1" source="ODKkw-43JTHZH8aYC60H-2" target="ODKkw-43JTHZH8aYC60H-6">
                    <mxGeometry relative="1" as="geometry"/>
                </mxCell>
                <mxCell id="ODKkw-43JTHZH8aYC60H-2" value="Fallback" style="whiteSpace=wrap;html=1;" vertex="1" parent="ejC8heTR-p2rXwsiGBWH-1">
                    <mxGeometry x="370" y="320" width="120" height="60" as="geometry"/>
                </mxCell>
                <mxCell id="ODKkw-43JTHZH8aYC60H-4" value="Página 404" style="whiteSpace=wrap;html=1;" vertex="1" parent="ejC8heTR-p2rXwsiGBWH-1">
                    <mxGeometry x="370" y="460" width="120" height="60" as="geometry"/>
                </mxCell>
                <mxCell id="ODKkw-43JTHZH8aYC60H-6" value="page-4.html" style="whiteSpace=wrap;html=1;" vertex="1" parent="ejC8heTR-p2rXwsiGBWH-1">
                    <mxGeometry x="600" y="320" width="120" height="60" as="geometry"/>
                </mxCell>
                <mxCell id="ODKkw-43JTHZH8aYC60H-8" value="&lt;font style=&quot;font-size: 14px&quot;&gt;Não existe?&lt;/font&gt;" style="text;html=1;align=center;verticalAlign=middle;resizable=0;points=[];autosize=1;" vertex="1" parent="ejC8heTR-p2rXwsiGBWH-1">
                    <mxGeometry x="440" y="412.5" width="90" height="20" as="geometry"/>
                </mxCell>
                <mxCell id="ODKkw-43JTHZH8aYC60H-9" value="&lt;font style=&quot;font-size: 14px&quot;&gt;Existe?&lt;/font&gt;" style="text;html=1;align=center;verticalAlign=middle;resizable=0;points=[];autosize=1;" vertex="1" parent="ejC8heTR-p2rXwsiGBWH-1">
                    <mxGeometry x="520" y="322.5" width="60" height="20" as="geometry"/>
                </mxCell>
                <mxCell id="JS1Z1UsCjOV1EIyug9Sy-1" value="" style="edgeStyle=orthogonalEdgeStyle;rounded=0;orthogonalLoop=1;jettySize=auto;html=1;" edge="1" parent="ejC8heTR-p2rXwsiGBWH-1" source="JS1Z1UsCjOV1EIyug9Sy-0" target="ODKkw-43JTHZH8aYC60H-6">
                    <mxGeometry relative="1" as="geometry"/>
                </mxCell>
                <mxCell id="JS1Z1UsCjOV1EIyug9Sy-0" value="&lt;font style=&quot;font-size: 14px&quot;&gt;Maria acessa&lt;br&gt;page-4.html&lt;/font&gt;" style="ellipse;whiteSpace=wrap;html=1;" vertex="1" parent="ejC8heTR-p2rXwsiGBWH-1">
                    <mxGeometry x="600" y="200" width="120" height="80" as="geometry"/>
                </mxCell>
                <mxCell id="JS1Z1UsCjOV1EIyug9Sy-2" value="&lt;font style=&quot;font-size: 18px&quot;&gt;Build mais rápido&lt;/font&gt;" style="text;html=1;align=center;verticalAlign=middle;resizable=0;points=[];autosize=1;" vertex="1" parent="ejC8heTR-p2rXwsiGBWH-1">
                    <mxGeometry x="-245" y="640" width="150" height="20" as="geometry"/>
                </mxCell>
                <mxCell id="JS1Z1UsCjOV1EIyug9Sy-3" value="Maior tempo de resposta" style="text;html=1;align=center;verticalAlign=middle;resizable=0;points=[];autosize=1;" vertex="1" parent="ejC8heTR-p2rXwsiGBWH-1">
                    <mxGeometry x="270" y="280" width="150" height="20" as="geometry"/>
                </mxCell>
            </root>
        </mxGraphModel>
    </diagram>
</mxfile>
